# xmcd
#
# Track frame offsets:
#	150
#	16440
#	31292
#	46600
#	62622
#	81617
#	96087
#	110635
#	120317
#	133577
#	152570
#	169870
#	179000
#	190040
#	201985
#	212695
#	224957
#	236452
#	246132
#	258540
#
# Disc length: 3652 seconds
#
# Revision: 3
# Processed by: cddbd v1.5.2PL0 Copyright (c) Steve Scherf et al.
# Submitted via: audiograbber 1.83.01
#
DISCID=220e4214
DTITLE=I Blueskvarter - I Blueskvarter - Chicago 1964 Vol 2 CD1
DYEAR=1964
DGENRE=Blues
TTITLE0=Paul Butterfield Blues Band - Help Me
TTITLE1=Paul Butterfield Blues Band  - Going Back Home
TTITLE2=Paul Butterfield Blues Band  - Everthing's Gonna Be Allright
TTITLE3=Paul Butterfield Blues Band  - Poor Boy
TTITLE4=Paul Butterfield Blues Band  - Last Night
TTITLE5=Paul Butterfield Blues Band  - Got My Mojo Working
TTITLE6=Washboard Sam  - Mountain Blues
TTITLE7=Washboard Sam  - All By Myself
TTITLE8=Washboard Sam Booker  - T Blues
TTITLE9=Washboard Sam  - I'm A Lonely Man
TTITLE10=Washboard Sam  - I'm Been Treated Wrong
TTITLE11=John Lee Grandersson  - Death Valley Blues
TTITLE12=John Lee Grandersson  - Easy Street
TTITLE13=John Lee Grandersson  - Bumble Bee Blues
TTITLE14=John Lee Grandersson  - That's All Right
TTITLE15=John Lee Grandersson  - Minglewood Blues
TTITLE16=Avery Brady  - Bad Weather
TTITLE17=Avery Brady  - City Of New Orleans
TTITLE18=Avery Brady  - Gangster Blues
TTITLE19=Avery Brady  - I Have A Woman Lives Down By The Sea
EXTD=Olle Hellander's blues recordings for the Swedish Broadcasting Corporation
EXTD=\n\n 1 -  6: Paul Butterfield Blues Band   Paul Butterfield, vocal, harmo
EXTD=nica -  Abraham Smothers, guitar - Jerome Arnold, bass - 	Sam Lay, drums(22/5
EXTD=1964]\n 7 - 11: Washboard Sam vocal, washboard - Blind John Davis, piano - 
EXTD=Betty Dupree, bass (19/5 1964]\n12 - 16: John Lee Grandersson vocal, guita
EXTD=r (15/5 1964]\n17 - 20: Avery Brady vocal, guitar - John Lee Grandersson, g
EXTD=uitar (4) (15/5 1964)
EXTT0=(Rice Miller)
EXTT1=(Chester Burnett)
EXTT2=(Walter Jacobs)
EXTT3=(Chester Burnett)
EXTT4=(Walter Jacobs)
EXTT5=(Preston Foster)
EXTT6=(Robert Brown)
EXTT7=(William Broonzy)
EXTT8=(Robert Brown)
EXTT9=(Robert Brown)
EXTT10=(Robert Brown)
EXTT11=(Arthur Crudup)
EXTT12=(John Lee Grandersson)
EXTT13=(Minnie McCoy)
EXTT14=(James D. Lane)
EXTT15=(John Lee Grandersson)
EXTT16=(Avery Brady)
EXTT17=(Avery Brady)
EXTT18=(Peetie Wheatstraw)
EXTT19=(Avery Brady)
PLAYORDER=
